<svg width="16" height="16" viewBox="0 0 16 16" fill="none" xmlns="http://www.w3.org/2000/svg">
<path fill-rule="evenodd" clip-rule="evenodd" d="M8 4.1C8.3866 4.1 8.7 4.4134 8.7 4.8V8C8.7 8.3866 8.3866 8.7 8 8.7C7.6134 8.7 7.3 8.3866 7.3 8V4.8C7.3 4.4134 7.6134 4.1 8 4.1ZM7.3 11.2C7.3 10.8134 7.6134 10.5 8 10.5H8.008C8.3946 10.5 8.708 10.8134 8.708 11.2C8.708 11.5866 8.3946 11.9 8.008 11.9H8C7.6134 11.9 7.3 11.5866 7.3 11.2ZM8 14.6C11.6451 14.6 14.6 11.6451 14.6 8C14.6 4.35492 11.6451 1.4 8 1.4C4.35492 1.4 1.4 4.35492 1.4 8C1.4 11.6451 4.35492 14.6 8 14.6ZM16 8C16 12.4183 12.4183 16 8 16C3.58172 16 0 12.4183 0 8C0 3.58172 3.58172 0 8 0C12.4183 0 16 3.58172 16 8Z" fill="#DA020F"/>
</svg>
