<svg width="16" height="16" viewBox="0 0 16 16" fill="none" xmlns="http://www.w3.org/2000/svg">
<path fill-rule="evenodd" clip-rule="evenodd" d="M9.5 11.9H8.00059H8L7.99942 11.9H6.5C6.1134 11.9 5.8 11.5866 5.8 11.2C5.8 10.8134 6.1134 10.5 6.5 10.5H7.3L7.3 8.2H7C6.6134 8.2 6.3 7.8866 6.3 7.5C6.3 7.1134 6.6134 6.8 7 6.8L8 6.8C8.18565 6.8 8.3637 6.87375 8.49498 7.00502C8.62625 7.1363 8.7 7.31435 8.7 7.5L8.7 10.5H9.5C9.8866 10.5 10.2 10.8134 10.2 11.2C10.2 11.5866 9.8866 11.9 9.5 11.9ZM1.4 8C1.4 4.35492 4.35492 1.4 8 1.4C11.6451 1.4 14.6 4.35492 14.6 8C14.6 11.6451 11.6451 14.6 8 14.6C4.35492 14.6 1.4 11.6451 1.4 8ZM8 0C3.58172 0 0 3.58172 0 8C0 12.4183 3.58172 16 8 16C12.4183 16 16 12.4183 16 8C16 3.58172 12.4183 0 8 0ZM7.8 5.6C8.24183 5.6 8.6 5.24183 8.6 4.8C8.6 4.35817 8.24183 4 7.8 4C7.35817 4 7 4.35817 7 4.8C7 5.24183 7.35817 5.6 7.8 5.6Z" fill="#0066FF"/>
</svg>
