<svg width="181" height="150" viewBox="0 0 181 150" fill="none" xmlns="http://www.w3.org/2000/svg">
<path d="M75 150C116.421 150 150 116.421 150 75C150 33.5786 116.421 0 75 0C33.5786 0 0 33.5786 0 75C0 116.421 33.5786 150 75 150Z" fill="url(#paint0_linear_108_49)"/>
<path d="M41 34H176C177.326 34 178.598 34.5268 179.536 35.4645C180.473 36.4021 181 37.6739 181 39V64C181 65.3261 180.473 66.5979 179.536 67.5355C178.598 68.4732 177.326 69 176 69H41C39.6739 69 38.4021 68.4732 37.4645 67.5355C36.5268 66.5979 36 65.3261 36 64V39C36 37.6739 36.5268 36.4021 37.4645 35.4645C38.4021 34.5268 39.6739 34 41 34Z" fill="white"/>
<path d="M105 42H79C77.3431 42 76 43.3431 76 45C76 46.6569 77.3431 48 79 48H105C106.657 48 108 46.6569 108 45C108 43.3431 106.657 42 105 42Z" fill="#E7DCF4"/>
<path d="M123 55H79C77.3431 55 76 56.3431 76 58C76 59.6569 77.3431 61 79 61H123C124.657 61 126 59.6569 126 58C126 56.3431 124.657 55 123 55Z" fill="#FCF8FF"/>
<path d="M68 51.5C68 43.4919 61.5081 37 53.5 37C45.4919 37 39 43.4919 39 51.5C39 59.5081 45.4919 66 53.5 66C61.5081 66 68 59.5081 68 51.5Z" fill="#5514B4"/>
<path d="M52.6002 56.1937C53.8415 56.1935 55.0472 55.7781 56.0252 55.0137L59.1002 58.0887L60.0892 57.0997L57.0132 54.0237C57.786 53.0245 58.1977 51.793 58.181 50.5299C58.1643 49.2668 57.7203 48.0466 56.9214 47.0682C56.1225 46.0897 55.0157 45.4107 53.7815 45.1418C52.5473 44.8729 51.2583 45.0299 50.1248 45.5873C48.9912 46.1447 48.0799 47.0696 47.5393 48.2113C46.9987 49.353 46.8607 50.6441 47.1478 51.8742C47.4349 53.1043 48.1301 54.2009 49.1203 54.9853C50.1104 55.7697 51.337 56.1956 52.6002 56.1937ZM52.6002 46.3997C53.4309 46.3997 54.2429 46.646 54.9336 47.1075C55.6243 47.569 56.1626 48.225 56.4805 48.9924C56.7984 49.7599 56.8816 50.6043 56.7195 51.4191C56.5574 52.2338 56.1574 52.9821 55.5701 53.5695C54.9827 54.1569 54.2343 54.5569 53.4196 54.719C52.6049 54.881 51.7604 54.7979 50.9929 54.48C50.2255 54.1621 49.5695 53.6238 49.108 52.9331C48.6465 52.2424 48.4002 51.4304 48.4002 50.5997C48.4002 49.4858 48.8427 48.4175 49.6304 47.6298C50.418 46.8422 51.4863 46.3997 52.6002 46.3997Z" fill="white"/>
<path d="M161 79H26C23.2386 79 21 81.2386 21 84V109C21 111.761 23.2386 114 26 114H161C163.761 114 166 111.761 166 109V84C166 81.2386 163.761 79 161 79Z" fill="white"/>
<path d="M90 87H64C62.3431 87 61 88.3431 61 90C61 91.6569 62.3431 93 64 93H90C91.6569 93 93 91.6569 93 90C93 88.3431 91.6569 87 90 87Z" fill="#E7DCF4"/>
<path d="M108 100H64C62.3431 100 61 101.343 61 103C61 104.657 62.3431 106 64 106H108C109.657 106 111 104.657 111 103C111 101.343 109.657 100 108 100Z" fill="#FCF8FF"/>
<path d="M53 96.5C53 88.4919 46.5081 82 38.5 82C30.4919 82 24 88.4919 24 96.5C24 104.508 30.4919 111 38.5 111C46.5081 111 53 104.508 53 96.5Z" fill="#5514B4"/>
<path d="M37.6002 101.194C38.8415 101.193 40.0472 100.778 41.0252 100.014L44.1002 103.089L45.0892 102.1L42.0132 99.0237C42.786 98.0245 43.1977 96.793 43.181 95.5299C43.1643 94.2668 42.7203 93.0466 41.9214 92.0682C41.1225 91.0897 40.0157 90.4107 38.7815 90.1418C37.5473 89.8729 36.2583 90.0299 35.1248 90.5873C33.9912 91.1447 33.0799 92.0696 32.5393 93.2113C31.9987 94.353 31.8607 95.6441 32.1478 96.8742C32.4349 98.1043 33.1301 99.2009 34.1203 99.9853C35.1104 100.77 36.337 101.196 37.6002 101.194ZM37.6002 91.3997C38.4309 91.3997 39.2429 91.646 39.9336 92.1075C40.6243 92.569 41.1626 93.225 41.4805 93.9924C41.7984 94.7599 41.8816 95.6043 41.7195 96.4191C41.5574 97.2338 41.1574 97.9821 40.5701 98.5695C39.9827 99.1569 39.2343 99.5569 38.4196 99.719C37.6049 99.881 36.7604 99.7979 35.9929 99.48C35.2255 99.1621 34.5695 98.6238 34.108 97.9331C33.6465 97.2424 33.4002 96.4304 33.4002 95.5997C33.4002 94.4858 33.8427 93.4175 34.6304 92.6298C35.418 91.8422 36.4863 91.3997 37.6002 91.3997Z" fill="white"/>
<defs>
<linearGradient id="paint0_linear_108_49" x1="-9.41332e-07" y1="75.0405" x2="181" y2="75.0405" gradientUnits="userSpaceOnUse">
<stop stop-color="#FCF9FF"/>
<stop offset="1" stop-color="#F9F9FF"/>
</linearGradient>
</defs>
</svg>
