<svg width="12" height="12" viewBox="0 0 12 12" fill="none" xmlns="http://www.w3.org/2000/svg">
<path fill-rule="evenodd" clip-rule="evenodd" d="M5.52016 0.579971C5.75739 0.35262 6.13142 0.350001 6.36215 0.572114C6.36696 0.576745 6.36814 0.583999 6.36516 0.589971V0.589971C6.36217 0.595943 6.36334 0.603155 6.36806 0.607877L11.6387 5.87855C11.7168 5.95665 11.7168 6.08329 11.6387 6.16139L6.36016 11.44C6.25016 11.56 6.09016 11.62 5.94016 11.62C5.79016 11.62 5.64016 11.56 5.52016 11.44C5.29016 11.2 5.29016 10.82 5.52016 10.59L9.95874 6.15139C10.0368 6.07329 10.0368 5.94665 9.95874 5.86855L5.52016 1.42997C5.29016 1.18997 5.29016 0.809971 5.52016 0.579971ZM1.46176 0.572114C1.46657 0.576745 1.46775 0.583999 1.46477 0.589971C1.46178 0.595943 1.46295 0.603155 1.46767 0.607877L6.73834 5.87855C6.81645 5.95665 6.81645 6.08329 6.73834 6.16139L1.45977 11.44C1.34977 11.56 1.18977 11.62 1.03977 11.62C0.889766 11.62 0.739766 11.56 0.619766 11.44C0.389766 11.2 0.389766 10.82 0.619766 10.59L5.05834 6.15139C5.13645 6.07329 5.13645 5.94665 5.05834 5.86855L0.619766 1.42997C0.389766 1.18997 0.389766 0.809971 0.619766 0.579971C0.857001 0.35262 1.23103 0.350001 1.46176 0.572114Z" fill="#2A2A2A"/>
<path d="M5.52016 0.579971L5.38174 0.43554L5.37874 0.438549L5.52016 0.579971ZM6.36016 11.44L6.2186 11.2984L6.21273 11.3048L6.36016 11.44ZM5.52016 11.44L5.37573 11.5784L5.37874 11.5814L5.52016 11.44ZM5.52016 10.59L5.66158 10.7314L5.66158 10.7314L5.52016 10.59ZM5.52016 1.42997L5.37573 1.56838L5.37874 1.57139L5.52016 1.42997ZM1.46176 0.572114L1.32305 0.7162L1.32305 0.716201L1.46176 0.572114ZM1.46767 0.607877L1.32625 0.749298L1.32625 0.749298L1.46767 0.607877ZM6.73834 5.87855L6.59692 6.01997L6.59692 6.01997L6.73834 5.87855ZM6.73834 6.16139L6.59692 6.01997L6.59692 6.01997L6.73834 6.16139ZM1.45977 11.44L1.31821 11.2984L1.31234 11.3048L1.45977 11.44ZM0.619766 11.44L0.475335 11.5784L0.478344 11.5814L0.619766 11.44ZM0.619766 10.59L0.761187 10.7314L0.761187 10.7314L0.619766 10.59ZM5.05834 6.15139L5.19977 6.29281L5.19977 6.29281L5.05834 6.15139ZM5.05834 5.86855L4.91692 6.00997L4.91692 6.00997L5.05834 5.86855ZM0.619766 1.42997L0.475335 1.56838L0.478344 1.57139L0.619766 1.42997ZM0.619766 0.579971L0.481353 0.43554L0.478344 0.438549L0.619766 0.579971ZM9.95874 6.15139L10.1002 6.29281L9.95874 6.15139ZM9.95874 5.86855L10.1002 5.72713L9.95874 5.86855ZM11.6387 5.87855L11.7802 5.73713L11.6387 5.87855ZM11.6387 6.16139L11.7802 6.30281L11.6387 6.16139ZM6.36806 0.607877L6.50948 0.466455L6.36806 0.607877ZM6.36215 0.572114L6.50085 0.428028L6.36215 0.572114ZM6.50085 0.428028C6.19023 0.128999 5.69388 0.136469 5.38178 0.435573L5.65854 0.724368C5.8209 0.568771 6.07261 0.571003 6.22344 0.7162L6.50085 0.428028ZM11.7802 5.73713L6.50948 0.466455L6.22664 0.749298L11.4973 6.01997L11.7802 5.73713ZM6.50158 11.5814L11.7802 6.30281L11.4973 6.01997L6.21873 11.2985L6.50158 11.5814ZM5.94016 11.82C6.13962 11.82 6.35547 11.7411 6.50759 11.5751L6.21273 11.3048C6.14484 11.3789 6.04069 11.42 5.94016 11.42V11.82ZM5.37874 11.5814C5.53504 11.7377 5.73544 11.82 5.94016 11.82V11.42C5.84487 11.42 5.74527 11.3822 5.66158 11.2985L5.37874 11.5814ZM5.37874 10.4485C5.06901 10.7583 5.07324 11.2627 5.37576 11.5784L5.66455 11.3016C5.50707 11.1373 5.5113 10.8817 5.66158 10.7314L5.37874 10.4485ZM9.81731 6.00997L5.37874 10.4485L5.66158 10.7314L10.1002 6.29281L9.81731 6.00997ZM5.37874 1.57139L9.81731 6.00997L10.1002 5.72713L5.66158 1.28855L5.37874 1.57139ZM5.37874 0.438549C5.06901 0.748273 5.07324 1.25268 5.37576 1.56835L5.66455 1.29159C5.50707 1.12726 5.5113 0.871668 5.66158 0.721392L5.37874 0.438549ZM1.64365 0.679411C1.68501 0.596686 1.6695 0.494488 1.60046 0.428028L1.32305 0.716201C1.26363 0.659002 1.25049 0.571311 1.28588 0.500531L1.64365 0.679411ZM1.60909 0.466455C1.66524 0.522603 1.67917 0.608383 1.64365 0.679411L1.28588 0.500531C1.24439 0.583503 1.26066 0.683707 1.32625 0.749298L1.60909 0.466455ZM6.87977 5.73713L1.60909 0.466455L1.32625 0.749298L6.59692 6.01997L6.87977 5.73713ZM6.87977 6.30281C7.03598 6.1466 7.03597 5.89334 6.87977 5.73713L6.59692 6.01997L6.59692 6.01997L6.87977 6.30281ZM1.60119 11.5814L6.87977 6.30281L6.59692 6.01997L1.31834 11.2985L1.60119 11.5814ZM1.03977 11.82C1.23923 11.82 1.45508 11.7411 1.6072 11.5751L1.31234 11.3048C1.24445 11.3789 1.1403 11.42 1.03977 11.42V11.82ZM0.478344 11.5814C0.634654 11.7377 0.835053 11.82 1.03977 11.82V11.42C0.944478 11.42 0.844877 11.3822 0.761187 11.2985L0.478344 11.5814ZM0.478344 10.4485C0.16862 10.7583 0.172851 11.2627 0.475368 11.5784L0.764163 11.3016C0.606681 11.1373 0.610911 10.8817 0.761187 10.7314L0.478344 10.4485ZM4.91692 6.00997L0.478344 10.4485L0.761187 10.7314L5.19977 6.29281L4.91692 6.00997ZM4.91692 6.00997L4.91692 6.00997L5.19977 6.29281C5.35597 6.1366 5.35598 5.88334 5.19977 5.72713L4.91692 6.00997ZM0.478344 1.57139L4.91692 6.00997L5.19977 5.72713L0.761187 1.28855L0.478344 1.57139ZM0.478344 0.438549C0.16862 0.748273 0.172851 1.25268 0.475368 1.56835L0.764163 1.29159C0.606681 1.12726 0.610911 0.871668 0.761187 0.721392L0.478344 0.438549ZM1.60046 0.428029C1.28984 0.128999 0.793493 0.136469 0.481385 0.435573L0.758147 0.724368C0.92051 0.56877 1.17222 0.571003 1.32305 0.7162L1.60046 0.428029ZM10.1002 6.29281C10.2564 6.1366 10.2564 5.88334 10.1002 5.72713L9.81731 6.00997L9.81731 6.00997L10.1002 6.29281ZM11.4973 6.01997L11.4973 6.01997L11.7802 6.30281C11.9364 6.1466 11.9364 5.89334 11.7802 5.73713L11.4973 6.01997ZM6.18627 0.500526C6.14478 0.583499 6.16105 0.683706 6.22664 0.749298L6.50948 0.466455C6.56563 0.522605 6.57956 0.608386 6.54404 0.679415L6.18627 0.500526ZM6.22344 0.7162C6.16403 0.659001 6.15088 0.571309 6.18627 0.500526L6.54404 0.679415C6.5854 0.596688 6.56989 0.494489 6.50085 0.428028L6.22344 0.7162Z" fill="#2A2A2A"/>
</svg>
