<svg width="12" height="12" viewBox="0 0 12 12" fill="none" xmlns="http://www.w3.org/2000/svg">
<path fill-rule="evenodd" clip-rule="evenodd" d="M2.04736 6.13644C1.96925 6.05834 1.96925 5.93171 2.04736 5.8536L6.48093 1.42002C6.71093 1.19002 6.71093 0.810022 6.48093 0.570022C6.25093 0.340022 5.87093 0.340022 5.63093 0.570022L0.352356 5.8486C0.274251 5.92671 0.274251 6.05334 0.352356 6.13144L5.63093 11.41C5.75093 11.53 5.90093 11.59 6.05093 11.59C6.20094 11.59 6.36093 11.53 6.47094 11.41C6.70094 11.18 6.70094 10.8 6.47094 10.56L2.04736 6.13644ZM6.94579 6.13644C6.86769 6.05834 6.86769 5.93171 6.94579 5.8536L11.3794 1.42002C11.6094 1.19002 11.6094 0.810022 11.3794 0.570022C11.1494 0.340022 10.7694 0.340022 10.5294 0.570022L5.25079 5.8486C5.17269 5.92671 5.17269 6.05334 5.25079 6.13144L10.5294 11.41C10.6494 11.53 10.7994 11.59 10.9494 11.59C11.0994 11.59 11.2594 11.53 11.3694 11.41C11.5994 11.18 11.5994 10.8 11.3694 10.56L6.94579 6.13644Z" fill="#2A2A2A"/>
<path d="M6.48093 1.42002L6.33951 1.2786L6.33951 1.2786L6.48093 1.42002ZM6.48093 0.570022L6.62536 0.43161L6.62236 0.428601L6.48093 0.570022ZM5.63093 0.570022L5.49252 0.425592L5.48951 0.428601L5.63093 0.570022ZM6.47094 11.41L6.32938 11.2685L6.3235 11.2749L6.47094 11.41ZM6.47094 10.56L6.61537 10.4216L6.61236 10.4186L6.47094 10.56ZM11.3794 1.42002L11.5208 1.56144L11.5208 1.56144L11.3794 1.42002ZM11.3794 0.570022L11.5238 0.43161L11.5208 0.428601L11.3794 0.570022ZM10.5294 0.570022L10.391 0.425592L10.388 0.428601L10.5294 0.570022ZM10.5294 11.41L10.6708 11.2686L10.6708 11.2686L10.5294 11.41ZM11.3694 11.41L11.2278 11.2685L11.2219 11.2749L11.3694 11.41ZM11.3694 10.56L11.5138 10.4216L11.5108 10.4186L11.3694 10.56ZM5.25079 5.8486L5.10937 5.70718L5.25079 5.8486ZM5.25079 6.13144L5.10937 6.27286L5.25079 6.13144ZM6.94579 5.8536L7.08722 5.99502L6.94579 5.8536ZM6.94579 6.13644L6.80437 6.27786L6.94579 6.13644ZM0.352356 5.8486L0.493777 5.99002L0.352356 5.8486ZM0.352356 6.13144L0.210935 6.27286L0.352356 6.13144ZM2.04736 6.13644L2.18878 5.99502L2.04736 6.13644ZM2.18878 5.99502L6.62236 1.56144L6.33951 1.2786L1.90593 5.71218L2.18878 5.99502ZM6.62236 1.56144C6.93208 1.25172 6.92785 0.747311 6.62533 0.431641L6.33654 0.708403C6.49402 0.872733 6.48979 1.12832 6.33951 1.2786L6.62236 1.56144ZM6.62236 0.428601C6.31263 0.118877 5.80822 0.123107 5.49255 0.425624L5.76932 0.71442C5.93365 0.556937 6.18924 0.561167 6.33951 0.711443L6.62236 0.428601ZM5.48951 0.428601L0.210935 5.70718L0.493777 5.99002L5.77236 0.711443L5.48951 0.428601ZM0.210935 6.27286L5.48951 11.5514L5.77236 11.2686L0.493778 5.99002L0.210935 6.27286ZM5.48951 11.5514C5.64582 11.7078 5.84622 11.79 6.05093 11.79V11.39C5.95565 11.39 5.85605 11.3523 5.77236 11.2686L5.48951 11.5514ZM6.05093 11.79C6.2504 11.79 6.46625 11.7111 6.61837 11.5452L6.3235 11.2749C6.25562 11.3489 6.15147 11.39 6.05093 11.39V11.79ZM6.61236 11.5514C6.92208 11.2417 6.91785 10.7373 6.61533 10.4216L6.32654 10.6984C6.48402 10.8627 6.47979 11.1183 6.32951 11.2686L6.61236 11.5514ZM6.61236 10.4186L2.18878 5.99502L1.90593 6.27786L6.32951 10.7014L6.61236 10.4186ZM7.08722 5.99502L11.5208 1.56144L11.238 1.2786L6.80437 5.71218L7.08722 5.99502ZM11.5208 1.56144C11.8305 1.25172 11.8263 0.747311 11.5238 0.431641L11.235 0.708403C11.3925 0.872733 11.3882 1.12832 11.238 1.2786L11.5208 1.56144ZM11.5208 0.428601C11.2111 0.118877 10.7067 0.123107 10.391 0.425624L10.6678 0.71442C10.8321 0.556937 11.0877 0.561167 11.238 0.711443L11.5208 0.428601ZM10.388 0.428601L5.10937 5.70718L5.39222 5.99002L10.6708 0.711443L10.388 0.428601ZM5.10937 6.27286L10.388 11.5514L10.6708 11.2686L5.39222 5.99002L5.10937 6.27286ZM10.388 11.5514C10.5443 11.7078 10.7447 11.79 10.9494 11.79V11.39C10.8541 11.39 10.7545 11.3523 10.6708 11.2686L10.388 11.5514ZM10.9494 11.79C11.1488 11.79 11.3647 11.7111 11.5168 11.5452L11.2219 11.2749C11.1541 11.3489 11.0499 11.39 10.9494 11.39V11.79ZM11.5108 11.5514C11.8205 11.2417 11.8163 10.7373 11.5138 10.4216L11.225 10.6984C11.3825 10.8627 11.3782 11.1183 11.228 11.2686L11.5108 11.5514ZM11.5108 10.4186L7.08722 5.99502L6.80437 6.27786L11.228 10.7014L11.5108 10.4186ZM5.10937 5.70718C4.95316 5.86339 4.95316 6.11665 5.10937 6.27286L5.39222 5.99002L5.39222 5.99002L5.10937 5.70718ZM6.80437 5.71218C6.64816 5.86839 6.64816 6.12165 6.80437 6.27786L7.08722 5.99502L7.08722 5.99502L6.80437 5.71218ZM0.210935 5.70718C0.0547247 5.86339 0.0547253 6.11666 0.210935 6.27286L0.493778 5.99002L0.493777 5.99002L0.210935 5.70718ZM1.90593 5.71218C1.74973 5.86839 1.74972 6.12165 1.90593 6.27786L2.18878 5.99502L2.18878 5.99502L1.90593 5.71218Z" fill="#2A2A2A"/>
</svg>
