<svg width="8" height="12" viewBox="0 0 8 12" fill="none" xmlns="http://www.w3.org/2000/svg">
<path d="M1.5057 11.59C1.50264 11.5961 1.49638 11.6 1.48953 11.5999C1.3428 11.597 1.18798 11.537 1.0807 11.42C0.850703 11.19 0.850703 10.81 1.0807 10.57L5.51928 6.13143C5.59739 6.05333 5.59739 5.9267 5.51928 5.84859L1.0807 1.41001C0.850703 1.18001 0.850703 0.800012 1.0807 0.560012C1.3107 0.330012 1.6907 0.330012 1.9307 0.560012L7.20928 5.83859C7.28739 5.9167 7.28739 6.04333 7.20928 6.12143L1.9307 11.4C1.81368 11.517 1.66814 11.577 1.52188 11.5799C1.51503 11.58 1.50877 11.5839 1.5057 11.59V11.59Z" fill="#2A2A2A" stroke="#2A2A2A" stroke-width="0.4"/>
</svg>
