<svg width="8" height="12" viewBox="0 0 8 12" fill="none" xmlns="http://www.w3.org/2000/svg">
<path d="M6.50516 11.61C6.50209 11.6038 6.49583 11.6 6.48898 11.5999C6.34225 11.597 6.18743 11.537 6.08016 11.42L0.801577 6.14139C0.723473 6.06329 0.723473 5.93665 0.801578 5.85855L6.08016 0.579971C6.31016 0.349971 6.69016 0.349971 6.93016 0.579971C7.16016 0.809971 7.16016 1.18997 6.93016 1.42997L2.49158 5.86855C2.41347 5.94665 2.41347 6.07329 2.49158 6.15139L6.93016 10.59C7.16016 10.82 7.16016 11.2 6.93016 11.44C6.81314 11.557 6.66759 11.617 6.52134 11.6199C6.51449 11.62 6.50822 11.6161 6.50516 11.61V11.61Z" fill="#2A2A2A" stroke="#2A2A2A" stroke-width="0.4"/>
</svg>
