<svg width="16" height="16" viewBox="0 0 16 16" fill="none" xmlns="http://www.w3.org/2000/svg">
<path d="M4.75355 7.64645C4.55829 7.45118 4.24171 7.45118 4.04645 7.64645C3.85118 7.84171 3.85118 8.15829 4.04645 8.35355L6.44645 10.7536C6.64171 10.9488 6.95829 10.9488 7.15355 10.7536L11.9536 5.95355C12.1488 5.75829 12.1488 5.44171 11.9536 5.24645C11.7583 5.05118 11.4417 5.05118 11.2464 5.24645L6.8 9.69289L4.75355 7.64645ZM15.5 8C15.5 12.1421 12.1421 15.5 8 15.5C3.85786 15.5 0.5 12.1421 0.5 8C0.5 3.85786 3.85786 0.5 8 0.5C12.1421 0.5 15.5 3.85786 15.5 8Z" stroke="#088003" stroke-linecap="round" stroke-linejoin="round"/>
</svg>
