<svg width="18" height="16" viewBox="0 0 18 16" fill="none" xmlns="http://www.w3.org/2000/svg">
<path d="M9 6.06976V9.18763M9 12.3055H9.00779M7.92069 2.08803L1.50966 13.1616C1.15406 13.7758 0.976267 14.0829 1.00254 14.335C1.02547 14.5548 1.14065 14.7546 1.31942 14.8846C1.52439 15.0336 1.87925 15.0336 2.58898 15.0336H15.411C16.1207 15.0336 16.4756 15.0336 16.6806 14.8846C16.8594 14.7546 16.9745 14.5548 16.9975 14.335C17.0237 14.0829 16.8459 13.7758 16.4903 13.1616L10.0793 2.08802C9.72499 1.47602 9.54783 1.17001 9.3167 1.06724C9.11508 0.977588 8.88492 0.977588 8.6833 1.06724C8.45217 1.17001 8.27501 1.47602 7.92069 2.08803Z" stroke="#FFA200" stroke-width="1.4" stroke-linecap="round" stroke-linejoin="round"/>
</svg>
